<?xml version="1.0" encoding="UTF-8" standalone="no"?>
<svg
   xmlns:dc="http://purl.org/dc/elements/1.1/"
   xmlns:cc="http://creativecommons.org/ns#"
   xmlns:rdf="http://www.w3.org/1999/02/22-rdf-syntax-ns#"
   xmlns:svg="http://www.w3.org/2000/svg"
   xmlns="http://www.w3.org/2000/svg"
   viewBox="0 0 531.93335 214.28"
   height="214.28"
   width="531.93335"
   xml:space="preserve"
   id="svg2"
   version="1.1"><metadata
     id="metadata8"><rdf:RDF><cc:Work
         rdf:about=""><dc:format>image/svg+xml</dc:format><dc:type
           rdf:resource="http://purl.org/dc/dcmitype/StillImage" /></cc:Work></rdf:RDF></metadata><defs
     id="defs6" /><g
     transform="matrix(1.3333333,0,0,-1.3333333,0,214.28)"
     id="g10"><g
       transform="scale(0.1)"
       id="g12"><path
         id="path14"
         style="fill:#f24ba0;fill-opacity:1;fill-rule:nonzero;stroke:none"
         d="m 3495.25,1298.06 c 0,-34.14 -27.67,-61.81 -61.81,-61.81 -34.14,0 -61.82,27.67 -61.82,61.81 0,34.14 27.68,61.81 61.82,61.81 34.14,0 61.81,-27.67 61.81,-61.81" /><path
         id="path16"
         style="fill:#f24ba0;fill-opacity:1;fill-rule:nonzero;stroke:none"
         d="m 3742.39,1050.81 c 0,-34.14 -27.68,-61.814 -61.81,-61.814 -34.14,0 -61.81,27.674 -61.81,61.814 0,34.14 27.67,61.81 61.81,61.81 34.13,0 61.81,-27.67 61.81,-61.81" /><path
         id="path18"
         style="fill:#f24ba0;fill-opacity:1;fill-rule:nonzero;stroke:none"
         d="m 1644.77,803.617 c 0,-34.14 -27.67,-61.816 -61.81,-61.816 -34.13,0 -61.81,27.676 -61.81,61.816 0,34.137 27.68,61.809 61.81,61.809 34.14,0 61.81,-27.672 61.81,-61.809" /><path
         id="path20"
         style="fill:#f24ba0;fill-opacity:1;fill-rule:nonzero;stroke:none"
         d="m 1644.77,927.238 c 0,-34.136 -27.67,-61.812 -61.81,-61.812 -34.13,0 -61.81,27.676 -61.81,61.812 0,34.141 27.68,61.813 61.81,61.813 34.14,0 61.81,-27.672 61.81,-61.813" /><path
         id="path22"
         style="fill:#00a877;fill-opacity:1;fill-rule:nonzero;stroke:none"
         d="m 3371.68,927.184 c 0,-34.137 -27.68,-61.809 -61.82,-61.809 -34.13,0 -61.81,27.672 -61.81,61.809 0,34.136 27.68,61.812 61.81,61.812 34.14,0 61.82,-27.676 61.82,-61.812" /><path
         id="path24"
         style="fill:#00a877;fill-opacity:1;fill-rule:nonzero;stroke:none"
         d="m 3124.53,1421.68 c 0,-34.13 -27.67,-61.81 -61.81,-61.81 -34.14,0 -61.81,27.68 -61.81,61.81 0,34.14 27.67,61.82 61.81,61.82 34.14,0 61.81,-27.68 61.81,-61.82" /><path
         id="path26"
         style="fill:#00a877;fill-opacity:1;fill-rule:nonzero;stroke:none"
         d="m 2630.25,1298.06 c 0,-34.14 -27.67,-61.81 -61.81,-61.81 -34.15,0 -61.82,27.67 -61.82,61.81 0,34.14 27.67,61.81 61.82,61.81 34.14,0 61.81,-27.67 61.81,-61.81" /><path
         id="path28"
         style="fill:#00a877;fill-opacity:1;fill-rule:nonzero;stroke:none"
         d="m 3124.53,1298.06 c 0,-34.14 -27.67,-61.81 -61.81,-61.81 -34.14,0 -61.81,27.67 -61.81,61.81 0,34.14 27.67,61.81 61.81,61.81 34.14,0 61.81,-27.67 61.81,-61.81" /><path
         id="path30"
         style="fill:#00a877;fill-opacity:1;fill-rule:nonzero;stroke:none"
         d="m 2630.25,1174.43 c 0,-34.13 -27.67,-61.81 -61.81,-61.81 -34.15,0 -61.82,27.68 -61.82,61.81 0,34.14 27.67,61.82 61.82,61.82 34.14,0 61.81,-27.68 61.81,-61.82" /><path
         id="path32"
         style="fill:#00a877;fill-opacity:1;fill-rule:nonzero;stroke:none"
         d="m 3124.53,1174.43 c 0,-34.13 -27.67,-61.81 -61.81,-61.81 -34.14,0 -61.81,27.68 -61.81,61.81 0,34.14 27.67,61.82 61.81,61.82 34.14,0 61.81,-27.68 61.81,-61.82" /><path
         id="path34"
         style="fill:#00a877;fill-opacity:1;fill-rule:nonzero;stroke:none"
         d="m 2630.25,1050.81 c 0,-34.14 -27.67,-61.814 -61.81,-61.814 -34.15,0 -61.82,27.674 -61.82,61.814 0,34.14 27.67,61.81 61.82,61.81 34.14,0 61.81,-27.67 61.81,-61.81" /><path
         id="path36"
         style="fill:#00a877;fill-opacity:1;fill-rule:nonzero;stroke:none"
         d="m 2753.82,1050.81 c 0,-34.14 -27.68,-61.814 -61.81,-61.814 -34.14,0 -61.82,27.674 -61.82,61.814 0,34.14 27.68,61.81 61.82,61.81 34.13,0 61.81,-27.67 61.81,-61.81" /><path
         id="path38"
         style="fill:#00a877;fill-opacity:1;fill-rule:nonzero;stroke:none"
         d="m 2877.39,1050.81 c 0,-34.14 -27.68,-61.814 -61.82,-61.814 -34.13,0 -61.8,27.674 -61.8,61.814 0,34.14 27.67,61.81 61.8,61.81 34.14,0 61.82,-27.67 61.82,-61.81" /><path
         id="path40"
         style="fill:#00a877;fill-opacity:1;fill-rule:nonzero;stroke:none"
         d="m 3124.53,1050.81 c 0,-34.14 -27.67,-61.814 -61.81,-61.814 -34.14,0 -61.81,27.674 -61.81,61.814 0,34.14 27.67,61.81 61.81,61.81 34.14,0 61.81,-27.67 61.81,-61.81" /><path
         id="path42"
         style="fill:#00a877;fill-opacity:1;fill-rule:nonzero;stroke:none"
         d="m 3248.1,1050.81 c 0,-34.14 -27.67,-61.814 -61.8,-61.814 -34.14,0 -61.82,27.674 -61.82,61.814 0,34.14 27.68,61.81 61.82,61.81 34.13,0 61.8,-27.67 61.8,-61.81" /><path
         id="path44"
         style="fill:#00a877;fill-opacity:1;fill-rule:nonzero;stroke:none"
         d="m 3371.68,1050.81 c 0,-34.14 -27.68,-61.814 -61.82,-61.814 -34.13,0 -61.81,27.674 -61.81,61.814 0,34.14 27.68,61.81 61.81,61.81 34.14,0 61.82,-27.67 61.82,-61.81" /><path
         id="path46"
         style="fill:#00a877;fill-opacity:1;fill-rule:nonzero;stroke:none"
         d="m 3495.25,1050.81 c 0,-34.14 -27.67,-61.814 -61.81,-61.814 -34.14,0 -61.82,27.674 -61.82,61.814 0,34.14 27.68,61.81 61.82,61.81 34.14,0 61.81,-27.67 61.81,-61.81" /><path
         id="path48"
         style="fill:#00a877;fill-opacity:1;fill-rule:nonzero;stroke:none"
         d="m 2877.39,927.184 c 0,-34.137 -27.68,-61.809 -61.82,-61.809 -34.13,0 -61.8,27.672 -61.8,61.809 0,34.136 27.67,61.812 61.8,61.812 34.14,0 61.82,-27.676 61.82,-61.812" /><path
         id="path50"
         style="fill:#00a877;fill-opacity:1;fill-rule:nonzero;stroke:none"
         d="m 3248.1,927.184 c 0,-34.137 -27.67,-61.809 -61.8,-61.809 -34.14,0 -61.82,27.672 -61.82,61.809 0,34.136 27.68,61.812 61.82,61.812 34.13,0 61.8,-27.676 61.8,-61.812" /><path
         id="path52"
         style="fill:#00a877;fill-opacity:1;fill-rule:nonzero;stroke:none"
         d="m 3495.25,927.184 c 0,-34.137 -27.67,-61.809 -61.81,-61.809 -34.14,0 -61.82,27.672 -61.82,61.809 0,34.136 27.68,61.812 61.82,61.812 34.14,0 61.81,-27.676 61.81,-61.812" /><path
         id="path54"
         style="fill:#00a877;fill-opacity:1;fill-rule:nonzero;stroke:none"
         d="m 2877.39,803.559 c 0,-34.141 -27.68,-61.809 -61.82,-61.809 -34.13,0 -61.8,27.668 -61.8,61.809 0,34.14 27.67,61.816 61.8,61.816 34.14,0 61.82,-27.676 61.82,-61.816" /><path
         id="path56"
         style="fill:#00a877;fill-opacity:1;fill-rule:nonzero;stroke:none"
         d="m 3124.53,803.559 c 0,-34.141 -27.67,-61.809 -61.81,-61.809 -34.14,0 -61.81,27.668 -61.81,61.809 0,34.14 27.67,61.816 61.81,61.816 34.14,0 61.81,-27.676 61.81,-61.816" /><path
         id="path58"
         style="fill:#00a877;fill-opacity:1;fill-rule:nonzero;stroke:none"
         d="m 3248.1,803.559 c 0,-34.141 -27.67,-61.809 -61.8,-61.809 -34.14,0 -61.82,27.668 -61.82,61.809 0,34.14 27.68,61.816 61.82,61.816 34.13,0 61.8,-27.676 61.8,-61.816" /><path
         id="path60"
         style="fill:#00a877;fill-opacity:1;fill-rule:nonzero;stroke:none"
         d="m 3371.68,803.559 c 0,-34.141 -27.68,-61.809 -61.82,-61.809 -34.13,0 -61.81,27.668 -61.81,61.809 0,34.14 27.68,61.816 61.81,61.816 34.14,0 61.82,-27.676 61.82,-61.816" /><path
         id="path62"
         style="fill:#00a877;fill-opacity:1;fill-rule:nonzero;stroke:none"
         d="m 3495.25,803.559 c 0,-34.141 -27.67,-61.809 -61.81,-61.809 -34.14,0 -61.82,27.668 -61.82,61.809 0,34.14 27.68,61.816 61.82,61.816 34.14,0 61.81,-27.676 61.81,-61.816" /><path
         id="path64"
         style="fill:#00a877;fill-opacity:1;fill-rule:nonzero;stroke:none"
         d="m 2877.39,679.934 c 0,-34.141 -27.68,-61.817 -61.82,-61.817 -34.13,0 -61.8,27.676 -61.8,61.817 0,34.14 27.67,61.816 61.8,61.816 34.14,0 61.82,-27.676 61.82,-61.816" /><path
         id="path66"
         style="fill:#00a877;fill-opacity:1;fill-rule:nonzero;stroke:none"
         d="m 3124.53,679.934 c 0,-34.141 -27.67,-61.817 -61.81,-61.817 -34.14,0 -61.81,27.676 -61.81,61.817 0,34.14 27.67,61.816 61.81,61.816 34.14,0 61.81,-27.676 61.81,-61.816" /><path
         id="path68"
         style="fill:#00a877;fill-opacity:1;fill-rule:nonzero;stroke:none"
         d="m 3248.1,679.934 c 0,-34.141 -27.67,-61.817 -61.8,-61.817 -34.14,0 -61.82,27.676 -61.82,61.817 0,34.14 27.68,61.816 61.82,61.816 34.13,0 61.8,-27.676 61.8,-61.816" /><path
         id="path70"
         style="fill:#00a877;fill-opacity:1;fill-rule:nonzero;stroke:none"
         d="m 3495.25,679.934 c 0,-34.141 -27.67,-61.817 -61.81,-61.817 -34.14,0 -61.82,27.676 -61.82,61.817 0,34.14 27.68,61.816 61.82,61.816 34.14,0 61.81,-27.676 61.81,-61.816" /><path
         id="path72"
         style="fill:#00a877;fill-opacity:1;fill-rule:nonzero;stroke:none"
         d="m 3495.25,556.309 c 0,-34.137 -27.67,-61.821 -61.81,-61.821 -34.14,0 -61.82,27.684 -61.82,61.821 0,34.14 27.68,61.808 61.82,61.808 34.14,0 61.81,-27.668 61.81,-61.808" /><path
         id="path74"
         style="fill:#00a877;fill-opacity:1;fill-rule:nonzero;stroke:none"
         d="m 3618.82,556.309 c 0,-34.137 -27.67,-61.821 -61.81,-61.821 -34.14,0 -61.82,27.684 -61.82,61.821 0,34.14 27.68,61.808 61.82,61.808 34.14,0 61.81,-27.668 61.81,-61.808" /><path
         id="path76"
         style="fill:#00a877;fill-opacity:1;fill-rule:nonzero;stroke:none"
         d="m 3742.39,556.309 c 0,-34.137 -27.68,-61.821 -61.81,-61.821 -34.14,0 -61.81,27.684 -61.81,61.821 0,34.14 27.67,61.808 61.81,61.808 34.13,0 61.81,-27.668 61.81,-61.808" /><path
         id="path78"
         style="fill:#00a877;fill-opacity:1;fill-rule:nonzero;stroke:none"
         d="m 3865.96,556.309 c 0,-34.137 -27.67,-61.821 -61.81,-61.821 -34.13,0 -61.81,27.684 -61.81,61.821 0,34.14 27.68,61.808 61.81,61.808 34.14,0 61.81,-27.668 61.81,-61.808" /><path
         id="path80"
         style="fill:#00a877;fill-opacity:1;fill-rule:nonzero;stroke:none"
         d="m 3124.53,432.691 c 0,-34.14 -27.67,-61.82 -61.81,-61.82 -34.14,0 -61.81,27.68 -61.81,61.82 0,34.129 27.67,61.797 61.81,61.797 34.14,0 61.81,-27.668 61.81,-61.797" /><path
         id="path82"
         style="fill:#00a877;fill-opacity:1;fill-rule:nonzero;stroke:none"
         d="m 3248.1,432.691 c 0,-34.14 -27.67,-61.82 -61.8,-61.82 -34.14,0 -61.82,27.68 -61.82,61.82 0,34.129 27.68,61.797 61.82,61.797 34.13,0 61.8,-27.668 61.8,-61.797" /><path
         id="path84"
         style="fill:#00a877;fill-opacity:1;fill-rule:nonzero;stroke:none"
         d="m 2753.82,309.059 c 0,-34.137 -27.68,-61.809 -61.81,-61.809 -34.14,0 -61.82,27.672 -61.82,61.809 0,34.14 27.68,61.812 61.82,61.812 34.13,0 61.81,-27.672 61.81,-61.812" /><path
         id="path86"
         style="fill:#00a877;fill-opacity:1;fill-rule:nonzero;stroke:none"
         d="m 2877.39,309.059 c 0,-34.137 -27.68,-61.809 -61.82,-61.809 -34.13,0 -61.8,27.672 -61.8,61.809 0,34.14 27.67,61.812 61.8,61.812 34.14,0 61.82,-27.672 61.82,-61.812" /><path
         id="path88"
         style="fill:#00a877;fill-opacity:1;fill-rule:nonzero;stroke:none"
         d="m 3000.96,309.059 c 0,-34.137 -27.67,-61.809 -61.81,-61.809 -34.14,0 -61.81,27.672 -61.81,61.809 0,34.14 27.67,61.812 61.81,61.812 34.14,0 61.81,-27.672 61.81,-61.812" /><path
         id="path90"
         style="fill:#00a877;fill-opacity:1;fill-rule:nonzero;stroke:none"
         d="m 3124.53,309.059 c 0,-34.137 -27.67,-61.809 -61.81,-61.809 -34.14,0 -61.81,27.672 -61.81,61.809 0,34.14 27.67,61.812 61.81,61.812 34.14,0 61.81,-27.672 61.81,-61.812" /><path
         id="path92"
         style="fill:#00a877;fill-opacity:1;fill-rule:nonzero;stroke:none"
         d="m 3248.1,309.059 c 0,-34.137 -27.67,-61.809 -61.8,-61.809 -34.14,0 -61.82,27.672 -61.82,61.809 0,34.14 27.68,61.812 61.82,61.812 34.13,0 61.8,-27.672 61.8,-61.812" /><path
         id="path94"
         style="fill:#00a877;fill-opacity:1;fill-rule:nonzero;stroke:none"
         d="m 3371.68,309.059 c 0,-34.137 -27.68,-61.809 -61.82,-61.809 -34.13,0 -61.81,27.672 -61.81,61.809 0,34.14 27.68,61.812 61.81,61.812 34.14,0 61.82,-27.672 61.82,-61.812" /><path
         id="path96"
         style="fill:#00a877;fill-opacity:1;fill-rule:nonzero;stroke:none"
         d="m 2753.82,185.43 c 0,-34.129 -27.68,-61.801 -61.81,-61.801 -34.14,0 -61.82,27.672 -61.82,61.801 0,34.14 27.68,61.82 61.82,61.82 34.13,0 61.81,-27.68 61.81,-61.82" /><path
         id="path98"
         style="fill:#00a877;fill-opacity:1;fill-rule:nonzero;stroke:none"
         d="m 3124.53,1545.3 c 0,-34.13 -27.67,-61.8 -61.81,-61.8 -34.14,0 -61.81,27.67 -61.81,61.8 0,34.15 27.67,61.82 61.81,61.82 34.14,0 61.81,-27.67 61.81,-61.82" /><path
         id="path100"
         style="fill:#00a877;fill-opacity:1;fill-rule:nonzero;stroke:none"
         d="m 2630.25,1421.68 c 0,-34.13 -27.67,-61.81 -61.81,-61.81 -34.15,0 -61.82,27.68 -61.82,61.81 0,34.14 27.67,61.82 61.82,61.82 34.14,0 61.81,-27.68 61.81,-61.82" /><path
         id="path102"
         style="fill:#00a877;fill-opacity:1;fill-rule:nonzero;stroke:none"
         d="m 3000.96,1421.68 c 0,-34.13 -27.67,-61.81 -61.81,-61.81 -34.14,0 -61.81,27.68 -61.81,61.81 0,34.14 27.67,61.82 61.81,61.82 34.14,0 61.81,-27.68 61.81,-61.82" /><path
         id="path104"
         style="fill:#00a877;fill-opacity:1;fill-rule:nonzero;stroke:none"
         d="m 3248.1,1421.68 c 0,-34.13 -27.67,-61.81 -61.8,-61.81 -34.14,0 -61.82,27.68 -61.82,61.81 0,34.14 27.68,61.82 61.82,61.82 34.13,0 61.8,-27.68 61.8,-61.82" /><path
         id="path106"
         style="fill:#00a877;fill-opacity:1;fill-rule:nonzero;stroke:none"
         d="m 2506.68,1298.06 c 0,-34.14 -27.68,-61.81 -61.82,-61.81 -34.14,0 -61.81,27.67 -61.81,61.81 0,34.14 27.67,61.81 61.81,61.81 34.14,0 61.82,-27.67 61.82,-61.81" /><path
         id="path108"
         style="fill:#00a877;fill-opacity:1;fill-rule:nonzero;stroke:none"
         d="m 2753.82,1298.06 c 0,-34.14 -27.68,-61.81 -61.81,-61.81 -34.14,0 -61.82,27.67 -61.82,61.81 0,34.14 27.68,61.81 61.82,61.81 34.13,0 61.81,-27.67 61.81,-61.81" /><path
         id="path110"
         style="fill:#00a877;fill-opacity:1;fill-rule:nonzero;stroke:none"
         d="m 3618.82,1298.06 c 0,-34.14 -27.67,-61.81 -61.81,-61.81 -34.14,0 -61.82,27.67 -61.82,61.81 0,34.14 27.68,61.81 61.82,61.81 34.14,0 61.81,-27.67 61.81,-61.81" /><path
         id="path112"
         style="fill:#00a877;fill-opacity:1;fill-rule:nonzero;stroke:none"
         d="m 3371.68,1174.43 c 0,-34.13 -27.68,-61.81 -61.82,-61.81 -34.13,0 -61.81,27.68 -61.81,61.81 0,34.14 27.68,61.82 61.81,61.82 34.14,0 61.82,-27.68 61.82,-61.82" /><path
         id="path114"
         style="fill:#00a877;fill-opacity:1;fill-rule:nonzero;stroke:none"
         d="m 3495.25,1174.43 c 0,-34.13 -27.67,-61.81 -61.81,-61.81 -34.14,0 -61.82,27.68 -61.82,61.81 0,34.14 27.68,61.82 61.82,61.82 34.14,0 61.81,-27.68 61.81,-61.82" /><path
         id="path116"
         style="fill:#00a877;fill-opacity:1;fill-rule:nonzero;stroke:none"
         d="m 3618.82,1174.43 c 0,-34.13 -27.67,-61.81 -61.81,-61.81 -34.14,0 -61.82,27.68 -61.82,61.81 0,34.14 27.68,61.82 61.82,61.82 34.14,0 61.81,-27.68 61.81,-61.82" /><path
         id="path118"
         style="fill:#00a877;fill-opacity:1;fill-rule:nonzero;stroke:none"
         d="m 3742.39,1174.43 c 0,-34.13 -27.68,-61.81 -61.81,-61.81 -34.14,0 -61.81,27.68 -61.81,61.81 0,34.14 27.67,61.82 61.81,61.82 34.13,0 61.81,-27.68 61.81,-61.82" /><path
         id="path120"
         style="fill:#00a877;fill-opacity:1;fill-rule:nonzero;stroke:none"
         d="m 3618.82,1050.81 c 0,-34.14 -27.67,-61.814 -61.81,-61.814 -34.14,0 -61.82,27.674 -61.82,61.814 0,34.14 27.68,61.81 61.82,61.81 34.14,0 61.81,-27.67 61.81,-61.81" /><path
         id="path122"
         style="fill:#00a877;fill-opacity:1;fill-rule:nonzero;stroke:none"
         d="m 3124.53,927.184 c 0,-34.137 -27.67,-61.809 -61.81,-61.809 -34.14,0 -61.81,27.672 -61.81,61.809 0,34.136 27.67,61.812 61.81,61.812 34.14,0 61.81,-27.676 61.81,-61.812" /><path
         id="path124"
         style="fill:#00a877;fill-opacity:1;fill-rule:nonzero;stroke:none"
         d="m 3618.82,927.184 c 0,-34.137 -27.67,-61.809 -61.81,-61.809 -34.14,0 -61.82,27.672 -61.82,61.809 0,34.136 27.68,61.812 61.82,61.812 34.14,0 61.81,-27.676 61.81,-61.812" /><path
         id="path126"
         style="fill:#00a877;fill-opacity:1;fill-rule:nonzero;stroke:none"
         d="m 3000.96,803.559 c 0,-34.141 -27.67,-61.809 -61.81,-61.809 -34.14,0 -61.81,27.668 -61.81,61.809 0,34.14 27.67,61.816 61.81,61.816 34.14,0 61.81,-27.676 61.81,-61.816" /><path
         id="path128"
         style="fill:#00a877;fill-opacity:1;fill-rule:nonzero;stroke:none"
         d="m 3000.96,679.934 c 0,-34.141 -27.67,-61.817 -61.81,-61.817 -34.14,0 -61.81,27.676 -61.81,61.817 0,34.14 27.67,61.816 61.81,61.816 34.14,0 61.81,-27.676 61.81,-61.816" /><path
         id="path130"
         style="fill:#00a877;fill-opacity:1;fill-rule:nonzero;stroke:none"
         d="m 3371.68,679.934 c 0,-34.141 -27.68,-61.817 -61.82,-61.817 -34.13,0 -61.81,27.676 -61.81,61.817 0,34.14 27.68,61.816 61.81,61.816 34.14,0 61.82,-27.676 61.82,-61.816" /><path
         id="path132"
         style="fill:#00a877;fill-opacity:1;fill-rule:nonzero;stroke:none"
         d="m 3865.96,679.934 c 0,-34.141 -27.67,-61.817 -61.81,-61.817 -34.13,0 -61.81,27.676 -61.81,61.817 0,34.14 27.68,61.816 61.81,61.816 34.14,0 61.81,-27.676 61.81,-61.816" /><path
         id="path134"
         style="fill:#00a877;fill-opacity:1;fill-rule:nonzero;stroke:none"
         d="m 3000.96,556.309 c 0,-34.137 -27.67,-61.821 -61.81,-61.821 -34.14,0 -61.81,27.684 -61.81,61.821 0,34.14 27.67,61.808 61.81,61.808 34.14,0 61.81,-27.668 61.81,-61.808" /><path
         id="path136"
         style="fill:#00a877;fill-opacity:1;fill-rule:nonzero;stroke:none"
         d="m 3124.53,556.309 c 0,-34.137 -27.67,-61.821 -61.81,-61.821 -34.14,0 -61.81,27.684 -61.81,61.821 0,34.14 27.67,61.808 61.81,61.808 34.14,0 61.81,-27.668 61.81,-61.808" /><path
         id="path138"
         style="fill:#00a877;fill-opacity:1;fill-rule:nonzero;stroke:none"
         d="m 3248.1,556.309 c 0,-34.137 -27.67,-61.821 -61.8,-61.821 -34.14,0 -61.82,27.684 -61.82,61.821 0,34.14 27.68,61.808 61.82,61.808 34.13,0 61.8,-27.668 61.8,-61.808" /><path
         id="path140"
         style="fill:#00a877;fill-opacity:1;fill-rule:nonzero;stroke:none"
         d="m 3989.54,556.309 c 0,-34.137 -27.68,-61.821 -61.82,-61.821 -34.14,0 -61.81,27.684 -61.81,61.821 0,34.14 27.67,61.808 61.81,61.808 34.14,0 61.82,-27.668 61.82,-61.808" /><path
         id="path142"
         style="fill:#00a877;fill-opacity:1;fill-rule:nonzero;stroke:none"
         d="m 3865.96,432.691 c 0,-34.14 -27.67,-61.82 -61.81,-61.82 -34.13,0 -61.81,27.68 -61.81,61.82 0,34.129 27.68,61.797 61.81,61.797 34.14,0 61.81,-27.668 61.81,-61.797" /><path
         id="path144"
         style="fill:#00a877;fill-opacity:1;fill-rule:nonzero;stroke:none"
         d="m 2630.25,185.43 c 0,-34.129 -27.67,-61.801 -61.81,-61.801 -34.15,0 -61.82,27.672 -61.82,61.801 0,34.14 27.67,61.82 61.82,61.82 34.14,0 61.81,-27.68 61.81,-61.82" /><path
         id="path146"
         style="fill:#00a877;fill-opacity:1;fill-rule:nonzero;stroke:none"
         d="m 2877.39,185.43 c 0,-34.129 -27.68,-61.801 -61.82,-61.801 -34.13,0 -61.8,27.672 -61.8,61.801 0,34.14 27.67,61.82 61.8,61.82 34.14,0 61.82,-27.68 61.82,-61.82" /><path
         id="path148"
         style="fill:#00a877;fill-opacity:1;fill-rule:nonzero;stroke:none"
         d="M 2753.82,61.8086 C 2753.82,27.6719 2726.14,0 2692.01,0 c -34.14,0 -61.82,27.6719 -61.82,61.8086 0,34.1406 27.68,61.8204 61.82,61.8204 34.13,0 61.81,-27.6798 61.81,-61.8204" /><path
         id="path150"
         style="fill:#00a877;fill-opacity:1;fill-rule:nonzero;stroke:none"
         d="m 289.82,748.48 c -13.218,2.04 -26.437,3.055 -38.644,3.055 -91.52,0 -133.215,-52.879 -133.215,-145.414 V 370.199 H 0 v 495.227 h 114.91 v -79.309 c 23.391,53.891 78.305,85.418 143.391,85.418 14.226,0 26.433,-2.031 31.519,-3.051 V 748.48" /><path
         id="path152"
         style="fill:#00a877;fill-opacity:1;fill-rule:nonzero;stroke:none"
         d="m 708.793,672.219 c -2.035,57.969 -40.68,109.824 -122.035,109.824 -74.231,0 -116.945,-56.941 -121.008,-109.824 z M 821.668,511.551 c -26.441,-86.449 -104.746,-156.61 -223.723,-156.61 -134.23,0 -253.211,97.629 -253.211,265.414 0,156.602 115.926,260.325 241.004,260.325 152.535,0 242.028,-100.668 242.028,-257.27 0,-19.328 -2.032,-35.59 -3.047,-37.64 h -362.02 c 3.051,-75.239 62.028,-129.141 135.246,-129.141 71.184,0 107.789,37.633 124.067,86.441 l 99.656,-31.519" /><path
         id="path154"
         style="fill:#00a877;fill-opacity:1;fill-rule:nonzero;stroke:none"
         d="M 1058.6,370.199 H 940.637 v 495.227 h 114.913 v -66.09 c 32.54,56.945 91.52,80.336 146.44,80.336 121.01,0 178.97,-87.461 178.97,-196.27 V 370.199 H 1263 V 663.07 c 0,61.016 -27.46,109.825 -101.69,109.825 -67.12,0 -102.71,-51.868 -102.71,-116.946 v -285.75" /><path
         id="path156"
         style="fill:#00a877;fill-opacity:1;fill-rule:nonzero;stroke:none"
         d="m 1784.67,655.949 207.45,-285.75 h -144.4 L 1702.3,572.559 1641.29,508.5 V 370.199 H 1524.34 V 557.48 l 307.11,307.946 h 156.6 L 1784.67,655.949" /><path
         id="path158"
         style="fill:#00a877;fill-opacity:1;fill-rule:nonzero;stroke:none"
         d="m 2254.49,355.961 c -117.96,0 -187.11,87.449 -187.11,197.269 v 312.196 h 117.96 V 574.602 c 0,-61.012 28.48,-112.883 99.66,-112.883 68.13,0 103.72,45.75 103.72,110.84 v 292.867 h 117.97 V 460.699 c 0,-40.679 3.04,-72.199 5.09,-90.5 h -112.89 c -2.03,11.192 -4.07,34.571 -4.07,54.903 -24.4,-44.743 -82.37,-69.141 -140.33,-69.141" /></g></g></svg>
