<svg width="1287" height="354" viewBox="0 0 1287 354" fill="none" xmlns="http://www.w3.org/2000/svg">
<g clip-path="url(#clip0_32_518)">
<path d="M763.921 0.132446C757.68 0.132446 752.628 5.23516 752.628 11.5192C752.628 17.8032 757.68 22.9059 763.921 22.9059C770.163 22.9059 775.215 17.8032 775.215 11.5192C775.215 5.23516 770.163 0.132446 763.921 0.132446Z" fill="#2E3461"/>
<path d="M763.921 30.4862C757.68 30.4862 752.628 35.5889 752.628 41.873C752.628 48.157 757.68 53.2597 763.921 53.2597C770.163 53.2597 775.215 48.157 775.215 41.873C775.215 35.5889 770.163 30.4862 763.921 30.4862Z" fill="#2E3461"/>
<path d="M854.235 60.8564C847.994 60.8564 842.942 65.9591 842.942 72.2431C842.942 78.5271 847.994 83.6299 854.235 83.6299C860.477 83.6299 865.529 78.5271 865.529 72.2431C865.529 65.9591 860.477 60.8564 854.235 60.8564Z" fill="white"/>
<path d="M914.451 0.132446C908.209 0.132446 903.157 5.23516 903.157 11.5192C903.157 17.8032 908.209 22.9059 914.451 22.9059C920.692 22.9059 925.744 17.8032 925.744 11.5192C925.744 5.23516 920.692 0.132446 914.451 0.132446Z" fill="#2E3461"/>
<path d="M914.451 60.8564C908.209 60.8564 903.157 65.9591 903.157 72.2431C903.157 78.5271 908.209 83.6299 914.451 83.6299C920.692 83.6299 925.744 78.5271 925.744 72.2431C925.744 65.9591 920.692 60.8564 914.451 60.8564Z" fill="#1986C3"/>
<path d="M1004.76 0.132446C998.523 0.132446 993.471 5.23516 993.471 11.5192C993.471 17.8032 998.523 22.9059 1004.76 22.9059C1011.01 22.9059 1016.06 17.8032 1016.06 11.5192C1016.06 5.23516 1011.01 0.132446 1004.76 0.132446Z" fill="#202048"/>
<path d="M1004.76 30.4862C998.523 30.4862 993.471 35.5889 993.471 41.873C993.471 48.157 998.523 53.2597 1004.76 53.2597C1011.01 53.2597 1016.06 48.157 1016.06 41.873C1016.06 35.5889 1011.01 30.4862 1004.76 30.4862Z" fill="#1986C3"/>
<path d="M1004.76 91.2264C998.523 91.2264 993.471 96.3292 993.471 102.613C993.471 108.897 998.523 114 1004.76 114C1011.01 114 1016.06 108.897 1016.06 102.613C1016.06 96.3292 1011.01 91.2264 1004.76 91.2264Z" fill="#2E3461"/>
<path d="M1064.98 0.132446C1058.74 0.132446 1053.69 5.23516 1053.69 11.5192C1053.69 17.8032 1058.74 22.9059 1064.98 22.9059C1071.22 22.9059 1076.27 17.8032 1076.27 11.5192C1076.27 5.23516 1071.22 0.132446 1064.98 0.132446Z" fill="white"/>
<path d="M1064.98 30.4862C1058.74 30.4862 1053.69 35.5889 1053.69 41.873C1053.69 48.157 1058.74 53.2597 1064.98 53.2597C1071.22 53.2597 1076.27 48.157 1076.27 41.873C1076.27 35.5889 1071.22 30.4862 1064.98 30.4862Z" fill="#2E3461"/>
<path d="M1125.18 0.132446C1118.94 0.132446 1113.88 5.23516 1113.88 11.5192C1113.88 17.8032 1118.94 22.9059 1125.18 22.9059C1131.42 22.9059 1136.47 17.8032 1136.47 11.5192C1136.47 5.23516 1131.42 0.132446 1125.18 0.132446Z" fill="#202048"/>
<path d="M1125.18 60.8564C1118.94 60.8564 1113.88 65.9591 1113.88 72.2431C1113.88 78.5271 1118.94 83.6299 1125.18 83.6299C1131.42 83.6299 1136.47 78.5271 1136.47 72.2431C1136.47 65.9591 1131.42 60.8564 1125.18 60.8564Z" fill="#F26E21"/>
<path d="M1185.39 0.132446C1179.15 0.132446 1174.1 5.23516 1174.1 11.5192C1174.1 17.8032 1179.15 22.9059 1185.39 22.9059C1191.63 22.9059 1196.69 17.8032 1196.69 11.5192C1196.69 5.23516 1191.63 0.132446 1185.39 0.132446Z" fill="#1FB68E"/>
<path d="M1185.39 30.4862C1179.15 30.4862 1174.1 35.5889 1174.1 41.873C1174.1 48.157 1179.15 53.2597 1185.39 53.2597C1191.63 53.2597 1196.69 48.157 1196.69 41.873C1196.69 35.5889 1191.63 30.4862 1185.39 30.4862Z" fill="#202048"/>
<path d="M703.707 0.132446C697.465 0.132446 692.414 5.23516 692.414 11.5192C692.414 17.8032 697.465 22.9059 703.707 22.9059C709.948 22.9059 715 17.8032 715 11.5192C715 5.23516 709.948 0.132446 703.707 0.132446Z" fill="#202048"/>
<path d="M131.707 0.132446C125.465 0.132446 120.414 5.23516 120.414 11.5192C120.414 17.8032 125.465 22.9059 131.707 22.9059C137.948 22.9059 143 17.8032 143 11.5192C143 5.23516 137.948 0.132446 131.707 0.132446Z" fill="#08B6CA"/>
<path d="M131.707 30.4862C125.465 30.4862 120.414 35.5889 120.414 41.873C120.414 48.157 125.465 53.2597 131.707 53.2597C137.948 53.2597 143 48.157 143 41.873C143 35.5889 137.948 30.4862 131.707 30.4862Z" fill="#4874B8"/>
<path d="M222.021 60.8564C215.779 60.8564 210.728 65.9591 210.728 72.2431C210.728 78.5271 215.779 83.6299 222.021 83.6299C228.262 83.6299 233.314 78.5271 233.314 72.2431C233.314 65.9591 228.262 60.8564 222.021 60.8564Z" fill="#F5B818"/>
<path d="M282.236 0.132446C275.994 0.132446 270.942 5.23516 270.942 11.5192C270.942 17.8032 275.994 22.9059 282.236 22.9059C288.477 22.9059 293.529 17.8032 293.529 11.5192C293.529 5.23516 288.477 0.132446 282.236 0.132446Z" fill="#2E3461"/>
<path d="M282.236 60.8564C275.994 60.8564 270.942 65.9591 270.942 72.2431C270.942 78.5271 275.994 83.6299 282.236 83.6299C288.477 83.6299 293.529 78.5271 293.529 72.2431C293.529 65.9591 288.477 60.8564 282.236 60.8564Z" fill="#2E3461"/>
<path d="M372.55 0.132446C366.308 0.132446 361.256 5.23516 361.256 11.5192C361.256 17.8032 366.308 22.9059 372.55 22.9059C378.791 22.9059 383.843 17.8032 383.843 11.5192C383.843 5.23516 378.791 0.132446 372.55 0.132446Z" fill="white"/>
<path d="M372.55 30.4862C366.308 30.4862 361.256 35.5889 361.256 41.873C361.256 48.157 366.308 53.2597 372.55 53.2597C378.791 53.2597 383.843 48.157 383.843 41.873C383.843 35.5889 378.791 30.4862 372.55 30.4862Z" fill="#202048"/>
<path d="M372.55 91.2264C366.308 91.2264 361.256 96.3292 361.256 102.613C361.256 108.897 366.308 114 372.55 114C378.791 114 383.843 108.897 383.843 102.613C383.843 96.3292 378.791 91.2264 372.55 91.2264Z" fill="#202048"/>
<path d="M432.765 0.132477C426.523 0.132477 421.471 5.23519 421.471 11.5192C421.471 17.8033 426.523 22.906 432.765 22.906C439.006 22.906 444.058 17.8033 444.058 11.5192C444.058 5.23519 439.006 0.132477 432.765 0.132477Z" fill="#F26E21"/>
<path d="M432.765 30.4864C426.523 30.4864 421.471 35.5891 421.471 41.8731C421.471 48.1571 426.523 53.2599 432.765 53.2599C439.006 53.2599 444.058 48.1571 444.058 41.8731C444.058 35.5891 439.006 30.4864 432.765 30.4864Z" fill="#202048"/>
<path d="M492.979 0.132446C486.738 0.132446 481.686 5.23516 481.686 11.5192C481.686 17.8032 486.738 22.9059 492.979 22.9059C499.221 22.9059 504.273 17.8032 504.273 11.5192C504.273 5.23516 499.221 0.132446 492.979 0.132446Z" fill="#2E3461"/>
<path d="M492.979 60.8564C486.738 60.8564 481.686 65.9591 481.686 72.2431C481.686 78.5271 486.738 83.6299 492.979 83.6299C499.221 83.6299 504.273 78.5271 504.273 72.2431C504.273 65.9591 499.221 60.8564 492.979 60.8564Z" fill="white"/>
<path d="M553.194 0.132446C546.953 0.132446 541.901 5.23516 541.901 11.5192C541.901 17.8032 546.953 22.9059 553.194 22.9059C559.436 22.9059 564.488 17.8032 564.488 11.5192C564.488 5.23516 559.436 0.132446 553.194 0.132446Z" fill="white"/>
<path d="M553.194 30.4862C546.953 30.4862 541.901 35.5889 541.901 41.873C541.901 48.157 546.953 53.2597 553.194 53.2597C559.436 53.2597 564.488 48.157 564.488 41.873C564.488 35.5889 559.436 30.4862 553.194 30.4862Z" fill="#2E3461"/>
<path d="M71.5082 0.132446C65.2667 0.132446 60.2148 5.23516 60.2148 11.5192C60.2148 17.8032 65.2667 22.9059 71.5082 22.9059C77.7497 22.9059 82.8015 17.8032 82.8015 11.5192C82.8015 5.23516 77.7497 0.132446 71.5082 0.132446Z" fill="#1986C3"/>
<g clip-path="url(#clip1_32_518)">
<g clip-path="url(#clip2_32_518)">
<path d="M295.534 295.234C295.384 292.349 293.994 289.754 291.839 287.85C289.787 286.03 286.905 284.975 284.153 285.162C280.207 285.432 278.136 287.094 275.664 289.95C274.479 288.774 273.397 288.363 271.811 287.953C271.951 287.225 272.026 286.506 271.998 285.759C271.886 282.866 270.673 279.879 268.528 277.909C266.018 275.594 263.22 274.735 259.852 274.866C260.235 272.878 260.337 271.076 259.899 269.079C259.097 265.364 256.876 262.442 253.695 260.416C250.468 258.363 246.839 258.102 243.164 258.932C242.632 256.505 241.904 254.237 240.626 252.081C239.488 250.158 237.902 248.571 237.38 246.322C238.695 246.322 240.001 246.322 241.316 246.294C241.326 243.419 241.316 240.544 241.27 237.669C242.716 239.246 244.47 240.628 246.065 242.065C248.537 244.296 250.962 246.592 253.416 248.842C253.341 244.819 253.416 240.786 253.416 236.763C253.416 234.626 253.471 232.479 253.294 230.351C252.623 222.566 249.432 215.332 244.516 209.311C244.675 205.409 244.535 201.479 244.544 197.578C244.544 194.18 244.684 190.736 244.497 187.338C243.984 177.677 241.923 167.4 238.257 158.42C236.074 153.062 233.313 147.966 230.384 142.991C229.759 144.157 229.04 145.287 228.406 146.444C226.447 149.935 224.647 153.51 223.023 157.169C219.012 166.401 216.979 176.445 216.503 186.47C216.148 194.021 216.456 201.61 216.279 209.171C215.131 210.608 214.021 212.074 213.061 213.642C209.721 219.084 207.958 225.506 207.575 231.853C207.436 234.206 207.529 236.605 207.538 238.966V248.609C209.124 246.956 210.896 245.454 212.613 243.923L219.73 237.566C219.618 240.488 219.646 243.447 219.702 246.368C220.999 246.331 222.314 246.266 223.611 246.359C222.911 248.497 221.596 249.878 220.393 251.689C218.947 253.873 218.145 256.337 217.594 258.876C215.514 258.484 213.49 258.214 211.391 258.671C207.977 259.408 204.991 261.462 203.079 264.384C201.074 267.511 200.318 271.272 201.12 274.913C200.197 274.857 199.292 274.801 198.368 274.903C195.542 275.249 192.976 276.714 191.232 278.964C189.198 281.568 188.76 284.732 189.152 287.925C187.538 288.186 186.316 288.783 185.085 289.866C184.805 289.4 184.487 288.98 184.124 288.578C182.165 286.441 179.422 285.18 176.53 285.096C173.657 285.003 170.663 286.03 168.564 288.027C166.101 290.38 165.094 293.161 165.028 296.503H167.034C166.931 293.983 167.538 291.78 169.282 289.894C170.952 288.121 173.256 287.066 175.691 286.963C178.153 286.861 180.56 287.766 182.351 289.465C182.678 289.773 183.004 290.109 183.265 290.473C183.564 290.884 184.282 292.489 184.805 292.499C185.402 292.499 186.698 290.856 187.314 290.464C188.508 289.698 189.991 289.848 191.251 289.381C191.419 289.148 191.344 288.774 191.307 288.513C191.213 287.906 191.008 287.318 190.933 286.702C190.672 284.574 191.139 282.221 192.389 280.457C193.825 278.432 195.943 277.19 198.378 276.798C199.17 276.668 200.094 276.612 200.896 276.714C201.409 276.78 202.072 277.041 202.575 276.966C202.837 276.929 203.004 276.798 203.182 276.612C203.35 275.771 202.809 274.343 202.725 273.438C202.305 268.948 204.18 264.608 207.949 262.05C210.243 260.5 213.368 259.884 216.083 260.416C217.081 260.612 218.051 260.977 219.012 261.303C219.6 258.596 220.048 255.983 221.41 253.509C220.952 255.423 220.598 257.448 220.589 259.418C220.561 263.254 221.811 267.539 223.807 270.796C224.357 271.702 224.982 272.588 225.691 273.382C225.645 272.243 225.635 271.095 225.514 269.956C226.988 272.495 228.462 275.249 230.3 277.545C232.007 275.146 233.565 272.663 235.076 270.143C235.104 271.319 234.992 272.458 234.852 273.625C238.649 269.041 240.654 263.198 240.094 257.233C239.973 256.001 239.749 254.788 239.441 253.593C240.775 256.123 241.41 258.615 241.764 261.434C244.843 260.099 247.902 259.819 251.074 261.098C253.891 262.227 256.298 264.654 257.483 267.445C258.304 269.377 258.621 271.664 258.182 273.737C258.033 274.437 257.763 275.127 257.679 275.827C257.641 276.107 257.576 276.612 257.847 276.789C257.884 276.817 257.949 276.854 257.986 276.864C258.621 277.125 260.608 276.64 261.429 276.612C263.5 276.556 265.757 277.75 267.194 279.169C269.05 280.98 270.16 283.351 270.179 285.965C270.179 286.553 270.132 287.131 270.057 287.71C269.778 287.971 269.544 288.223 269.526 288.634C269.516 288.821 269.544 289.064 269.666 289.204C270.095 289.736 272.175 289.838 272.912 290.146C273.947 290.576 275.151 292.163 275.99 292.349C276.867 291.985 277.53 290.594 278.164 289.894C280.701 287.122 284.871 286.291 288.323 287.729C290.524 288.671 292.269 290.454 293.164 292.685C293.658 293.908 293.864 295.196 293.733 296.503H295.58C295.599 296.074 295.599 295.654 295.58 295.224L295.534 295.234ZM244.525 212.335C245.356 213.129 246.858 215.91 247.436 217.021C249.759 221.52 251.233 226.206 251.513 231.284C251.606 232.927 251.55 234.598 251.55 236.25V244.669C251.065 244.1 250.468 243.596 249.899 243.101C247.1 240.525 243.798 237.921 241.279 235.083C243.434 227.336 244.04 220.251 244.404 212.242C244.442 212.27 244.488 212.307 244.525 212.335ZM230.365 146.855C230.859 147.368 231.223 148.218 231.568 148.853C233.686 152.642 235.468 156.488 237.025 160.539C237.464 161.687 238.033 162.882 238.191 164.114C235.57 164.87 233.145 165.309 230.412 165.318C227.734 165.29 224.964 164.926 222.454 163.946C223.984 158.411 227.473 151.877 230.356 146.864L230.365 146.855ZM216.055 238.369L211.148 242.709C210.551 243.232 209.973 243.764 209.376 244.296C209.46 239.909 209.124 235.466 209.441 231.097C209.824 225.646 211.96 218.991 214.852 214.352C215.281 213.67 215.803 213.035 216.298 212.401C216.521 213.063 216.484 215.285 216.54 216.134C216.661 218.039 216.829 219.943 217.035 221.838C217.352 224.834 217.855 227.812 218.536 230.743C218.872 232.189 219.301 233.627 219.674 235.064C218.592 236.241 217.258 237.305 216.055 238.369ZM218.182 209.638C218.135 206.147 218.238 202.637 218.238 199.146C218.247 193.508 218.117 187.777 218.667 182.157C219.199 176.641 220.178 171.003 221.857 165.72C227.436 167.745 233.219 167.484 238.863 165.888C240.514 171.18 241.624 176.613 242.184 182.129C242.781 187.777 242.669 193.433 242.669 199.109C242.669 209.04 242.678 218.963 240.775 228.754C240.384 230.761 239.973 232.75 239.376 234.71H233.107L233.117 214.053C233.107 212.727 233.313 210.16 233.033 209.003C232.921 208.546 232.688 208.116 232.361 207.78C231.857 207.248 231.186 206.959 230.449 206.968C229.712 206.968 229.031 207.267 228.509 207.799C228.191 208.126 227.874 208.602 227.809 209.05C227.678 209.946 227.753 210.917 227.762 211.813V216.554L227.781 234.682H221.633C220.878 232.862 220.458 230.808 220.057 228.876C218.742 222.594 218.257 216.05 218.173 209.638H218.182ZM229.647 212.139C229.647 211.271 229.563 210.3 229.693 209.442C229.731 209.18 229.954 208.994 230.132 208.816C230.309 208.798 230.495 208.788 230.673 208.835C230.878 208.9 231.065 209.031 231.158 209.227C231.344 209.61 231.438 234.066 231.186 234.654L231.027 234.691H229.665V217.357L229.647 212.139ZM239.385 236.605C239.385 237.034 239.479 238.807 239.274 239.088H221.624C221.605 238.229 221.615 237.379 221.605 236.53C227.529 236.623 233.453 236.493 239.376 236.605H239.385ZM221.596 244.557C221.596 243.353 221.605 242.149 221.624 240.945C227.538 240.973 233.453 240.973 239.367 240.945C239.386 242.159 239.507 243.419 239.404 244.632C233.471 244.52 227.538 244.501 221.605 244.567L221.596 244.557ZM236.82 266.493C236.82 264.766 236.456 263.301 235.934 261.667C235.477 265.653 234.115 268.248 231.997 271.552C231.419 272.43 230.859 273.326 230.318 274.241C227.706 270.619 225.178 266.185 224.805 261.658C224.152 263.347 223.956 264.813 223.882 266.605C221.848 261.331 222.146 256.431 223.947 251.175C224.497 249.57 225.197 248.02 225.701 246.406C228.807 246.266 231.96 246.378 235.076 246.378C237.828 253.098 239.544 259.39 236.811 266.484L236.82 266.493Z" fill="white"/>
<path d="M188.554 190.204C190.308 190.95 191.801 190.53 192.715 192.612C193.013 193.303 193.237 195.048 193.601 195.468C193.685 195.562 193.797 195.608 193.909 195.646C193.937 195.655 193.974 195.664 194.002 195.674C195.047 194.918 194.842 192.481 196.111 191.399C196.829 190.782 199.581 190.39 199.795 189.69C199.721 189.429 199.609 189.308 199.376 189.168C198.359 188.561 196.81 188.645 195.952 187.739C194.879 186.61 194.879 184.566 194.273 183.875C194.133 183.716 193.984 183.679 193.778 183.632C192.855 184.706 193.135 186.545 191.763 187.758C190.98 188.449 188.181 188.99 187.967 189.709C188.079 189.97 188.293 190.082 188.545 190.194L188.554 190.204ZM193.928 188.019C194.338 188.636 194.777 189.084 195.336 189.56C194.823 190.064 194.375 190.568 193.965 191.146C193.527 190.484 193.2 190.008 192.482 189.616C193.135 189.158 193.564 188.72 193.928 188.01V188.019Z" fill="white"/>
<path d="M261.484 190.213C262.595 190.736 263.873 190.95 265.011 191.427C265.207 191.959 266.27 195.366 266.662 195.524C266.792 195.58 266.895 195.571 267.035 195.58C267.912 194.451 268.22 192.687 268.761 191.361C269.451 191.1 272.567 190.288 272.772 189.774C272.809 189.69 272.753 189.625 272.725 189.55C272.175 189.046 269.507 188.216 268.667 187.982C268.36 187.226 267.408 184.034 266.83 183.819C266.755 183.791 266.727 183.791 266.662 183.772C265.832 184.734 265.533 186.629 265.048 187.823C264.33 188.15 261.177 189.149 260.934 189.718C261.037 189.989 261.233 190.092 261.484 190.222V190.213ZM266.811 188.103C267.492 188.85 267.249 189.074 268.36 189.644C267.735 190.064 267.24 190.577 266.83 191.202C266.401 190.53 265.953 190.092 265.29 189.653C266.093 189.326 266.438 188.85 266.811 188.094V188.103Z" fill="white"/>
<path d="M175.644 214.146C176.175 214.874 176.576 217.292 177.145 217.572C177.267 217.637 177.444 217.628 177.575 217.628C178.461 216.303 178.228 214.501 179.72 213.502C180.028 213.297 180.373 213.148 180.728 213.045C181.334 212.858 183.2 212.699 183.209 211.925C182.593 210.926 180.159 211.103 179.207 209.843C178.89 209.423 178.563 208.844 178.396 208.35C178.2 207.771 178.022 205.96 177.379 205.801C177.276 205.773 177.136 205.792 177.024 205.792C176.007 207.967 176.465 209.824 173.722 210.861C173.144 211.075 171.8 211.178 171.53 211.794C171.483 211.897 171.539 211.962 171.586 212.055C172.705 213.026 174.468 212.531 175.653 214.146H175.644ZM177.22 210.235C177.798 210.683 178.246 211.421 178.815 211.925C178.19 212.335 177.752 212.811 177.351 213.428C176.884 212.727 176.492 212.251 175.737 211.859C176.362 211.337 176.81 210.954 177.22 210.235Z" fill="white"/>
<path d="M281.625 213.876C281.625 213.876 281.652 213.932 281.662 213.96C282.026 214.716 282.781 217.581 283.434 217.843C283.556 217.824 283.667 217.815 283.779 217.777C284.358 216.536 284.778 215.266 285.216 213.969C286.149 213.596 288.854 212.914 289.442 212.41C289.479 212.317 289.544 212.251 289.498 212.149C289.255 211.617 286.13 210.609 285.431 210.357C285.085 209.526 284.162 206.483 283.686 206.063C283.546 206.025 283.425 206.007 283.276 205.997C282.576 206.968 282.315 209.003 281.802 210.217C281.158 210.459 277.856 211.495 277.623 212.018C277.576 212.121 277.623 212.205 277.679 212.289C278.024 212.867 280.906 213.605 281.625 213.866V213.876ZM283.556 210.599C283.695 210.758 283.789 210.973 283.919 211.141C284.311 211.635 284.759 211.887 285.309 212.158C285.011 212.223 284.712 212.298 284.414 212.382C284.059 212.83 283.761 213.325 283.537 213.848C283.472 213.661 283.406 213.474 283.322 213.297C282.996 212.643 282.473 212.326 281.792 212.111C282.585 211.719 283.098 211.355 283.556 210.59V210.599Z" fill="white"/>
<path d="M279.32 268.799C279.609 269.62 280.216 272.477 280.645 272.934C280.85 273.018 280.981 273.027 281.205 273.027C281.914 272.103 282.109 269.984 282.66 268.836L282.753 268.789C283.77 268.267 285.86 267.875 286.568 267.137C286.596 267.016 286.643 266.969 286.568 266.857C286.177 266.232 283.499 265.485 282.679 265.168C282.483 264.589 281.671 261.593 281.251 261.313C281.065 261.275 280.925 261.257 280.729 261.275C279.955 262.265 279.684 264.038 279.18 265.224C278.415 265.494 275.673 266.288 275.346 266.913C275.281 267.035 275.318 267.091 275.346 267.212C275.85 267.819 278.425 268.481 279.311 268.808L279.32 268.799ZM280.953 265.55C281.074 265.672 281.158 265.868 281.251 266.008C281.54 266.437 281.914 266.727 282.324 267.025C281.624 267.343 281.307 267.669 280.915 268.313C280.831 268.239 280.859 268.276 280.794 268.173C280.402 267.529 280.169 267.333 279.479 267.072C280.141 266.633 280.57 266.251 280.943 265.55H280.953Z" fill="white"/>
<path d="M181.772 265.28C181.418 264.384 180.952 261.947 180.317 261.397C180.112 261.331 179.991 261.331 179.785 261.35C179.151 262.227 178.703 264.365 178.321 265.485C177.481 265.737 174.664 266.4 174.291 267.109C174.226 267.231 174.254 267.268 174.263 267.399C174.664 267.921 177.593 268.435 178.414 268.668C178.694 269.452 179.403 272.533 179.823 272.906C180.019 272.981 180.196 272.999 180.401 272.906C180.494 272.869 180.504 272.859 180.569 272.813C180.886 271.506 181.259 270.162 181.707 268.883L181.81 268.836C182.808 268.397 185.7 268.08 186.194 267.296C186.185 267.1 186.157 267.016 186.017 266.876C185.448 266.325 182.696 265.662 181.81 265.382L181.763 265.261L181.772 265.28ZM180.224 268.463L180.205 268.509C180.047 268.481 179.907 267.996 179.804 267.837C179.571 267.473 179.151 267.249 178.778 267.063C179.496 266.605 179.851 266.288 180.131 265.457C180.196 265.644 180.271 265.84 180.355 266.017C180.662 266.624 181.045 266.839 181.679 267.044C180.942 267.417 180.616 267.744 180.224 268.463Z" fill="white"/>
<path d="M234.113 182.933C234.475 182.933 234.767 182.64 234.767 182.278C234.767 181.916 234.475 181.622 234.113 181.622C233.752 181.622 233.459 181.916 233.459 182.278C233.459 182.64 233.752 182.933 234.113 182.933Z" fill="white"/>
<path d="M236.732 185.556C237.093 185.556 237.386 185.262 237.386 184.9C237.386 184.538 237.093 184.245 236.732 184.245C236.371 184.245 236.078 184.538 236.078 184.9C236.078 185.262 236.371 185.556 236.732 185.556Z" fill="white"/>
<path d="M232.808 186.867C233.169 186.867 233.462 186.574 233.462 186.212C233.462 185.85 233.169 185.556 232.808 185.556C232.447 185.556 232.154 185.85 232.154 186.212C232.154 186.574 232.447 186.867 232.808 186.867Z" fill="white"/>
<path d="M230.192 181.62C230.553 181.62 230.846 181.326 230.846 180.964C230.846 180.602 230.553 180.308 230.192 180.308C229.83 180.308 229.538 180.602 229.538 180.964C229.538 181.326 229.83 181.62 230.192 181.62Z" fill="white"/>
<path d="M224.96 182.933C225.321 182.933 225.614 182.64 225.614 182.278C225.614 181.916 225.321 181.622 224.96 181.622C224.599 181.622 224.306 181.916 224.306 182.278C224.306 182.64 224.599 182.933 224.96 182.933Z" fill="white"/>
<path d="M230.192 182.933C230.553 182.933 230.846 182.64 230.846 182.278C230.846 181.916 230.553 181.622 230.192 181.622C229.83 181.622 229.538 181.916 229.538 182.278C229.538 182.64 229.83 182.933 230.192 182.933Z" fill="white"/>
<path d="M224.96 184.245C225.321 184.245 225.614 183.951 225.614 183.589C225.614 183.227 225.321 182.933 224.96 182.933C224.599 182.933 224.306 183.227 224.306 183.589C224.306 183.951 224.599 184.245 224.96 184.245Z" fill="white"/>
<path d="M230.192 184.245C230.553 184.245 230.846 183.951 230.846 183.589C230.846 183.227 230.553 182.933 230.192 182.933C229.83 182.933 229.538 183.227 229.538 183.589C229.538 183.951 229.83 184.245 230.192 184.245Z" fill="white"/>
<path d="M224.96 185.556C225.321 185.556 225.614 185.262 225.614 184.9C225.614 184.538 225.321 184.245 224.96 184.245C224.599 184.245 224.306 184.538 224.306 184.9C224.306 185.262 224.599 185.556 224.96 185.556Z" fill="white"/>
<path d="M226.268 185.556C226.629 185.556 226.922 185.262 226.922 184.9C226.922 184.538 226.629 184.245 226.268 184.245C225.907 184.245 225.614 184.538 225.614 184.9C225.614 185.262 225.907 185.556 226.268 185.556Z" fill="white"/>
<path d="M227.575 185.556C227.937 185.556 228.229 185.262 228.229 184.9C228.229 184.538 227.937 184.245 227.575 184.245C227.214 184.245 226.921 184.538 226.921 184.9C226.921 185.262 227.214 185.556 227.575 185.556Z" fill="white"/>
<path d="M230.192 185.556C230.553 185.556 230.846 185.262 230.846 184.9C230.846 184.538 230.553 184.245 230.192 184.245C229.83 184.245 229.538 184.538 229.538 184.9C229.538 185.262 229.83 185.556 230.192 185.556Z" fill="white"/>
<path d="M231.5 185.556C231.861 185.556 232.154 185.262 232.154 184.9C232.154 184.538 231.861 184.245 231.5 184.245C231.139 184.245 230.846 184.538 230.846 184.9C230.846 185.262 231.139 185.556 231.5 185.556Z" fill="white"/>
<path d="M232.808 185.556C233.169 185.556 233.462 185.262 233.462 184.9C233.462 184.538 233.169 184.245 232.808 184.245C232.447 184.245 232.154 184.538 232.154 184.9C232.154 185.262 232.447 185.556 232.808 185.556Z" fill="white"/>
<path d="M234.113 185.556C234.475 185.556 234.767 185.262 234.767 184.9C234.767 184.538 234.475 184.245 234.113 184.245C233.752 184.245 233.459 184.538 233.459 184.9C233.459 185.262 233.752 185.556 234.113 185.556Z" fill="white"/>
<path d="M227.575 186.867C227.937 186.867 228.229 186.574 228.229 186.212C228.229 185.85 227.937 185.556 227.575 185.556C227.214 185.556 226.921 185.85 226.921 186.212C226.921 186.574 227.214 186.867 227.575 186.867Z" fill="white"/>
<path d="M231.5 186.867C231.861 186.867 232.154 186.574 232.154 186.212C232.154 185.85 231.861 185.556 231.5 185.556C231.139 185.556 230.846 185.85 230.846 186.212C230.846 186.574 231.139 186.867 231.5 186.867Z" fill="white"/>
<path d="M234.113 186.867C234.475 186.867 234.767 186.574 234.767 186.212C234.767 185.85 234.475 185.556 234.113 185.556C233.752 185.556 233.459 185.85 233.459 186.212C233.459 186.574 233.752 186.867 234.113 186.867Z" fill="white"/>
<path d="M227.575 188.179C227.937 188.179 228.229 187.885 228.229 187.523C228.229 187.161 227.937 186.867 227.575 186.867C227.214 186.867 226.921 187.161 226.921 187.523C226.921 187.885 227.214 188.179 227.575 188.179Z" fill="white"/>
<path d="M230.192 188.179C230.553 188.179 230.846 187.885 230.846 187.523C230.846 187.161 230.553 186.867 230.192 186.867C229.83 186.867 229.538 187.161 229.538 187.523C229.538 187.885 229.83 188.179 230.192 188.179Z" fill="white"/>
<path d="M231.5 188.179C231.861 188.179 232.154 187.885 232.154 187.523C232.154 187.161 231.861 186.867 231.5 186.867C231.139 186.867 230.846 187.161 230.846 187.523C230.846 187.885 231.139 188.179 231.5 188.179Z" fill="white"/>
<path d="M232.808 188.179C233.169 188.179 233.462 187.885 233.462 187.523C233.462 187.161 233.169 186.867 232.808 186.867C232.447 186.867 232.154 187.161 232.154 187.523C232.154 187.885 232.447 188.179 232.808 188.179Z" fill="white"/>
<path d="M234.113 188.179C234.475 188.179 234.767 187.885 234.767 187.523C234.767 187.161 234.475 186.867 234.113 186.867C233.752 186.867 233.459 187.161 233.459 187.523C233.459 187.885 233.752 188.179 234.113 188.179Z" fill="white"/>
<path d="M227.575 189.49C227.937 189.49 228.229 189.196 228.229 188.834C228.229 188.472 227.937 188.179 227.575 188.179C227.214 188.179 226.921 188.472 226.921 188.834C226.921 189.196 227.214 189.49 227.575 189.49Z" fill="white"/>
<path d="M230.192 189.49C230.553 189.49 230.846 189.196 230.846 188.834C230.846 188.472 230.553 188.179 230.192 188.179C229.83 188.179 229.538 188.472 229.538 188.834C229.538 189.196 229.83 189.49 230.192 189.49Z" fill="white"/>
<path d="M231.5 189.49C231.861 189.49 232.154 189.196 232.154 188.834C232.154 188.472 231.861 188.179 231.5 188.179C231.139 188.179 230.846 188.472 230.846 188.834C230.846 189.196 231.139 189.49 231.5 189.49Z" fill="white"/>
<path d="M234.113 189.49C234.475 189.49 234.767 189.196 234.767 188.834C234.767 188.472 234.475 188.179 234.113 188.179C233.752 188.179 233.459 188.472 233.459 188.834C233.459 189.196 233.752 189.49 234.113 189.49Z" fill="white"/>
<path d="M234.113 190.801C234.475 190.801 234.767 190.508 234.767 190.146C234.767 189.783 234.475 189.49 234.113 189.49C233.752 189.49 233.459 189.783 233.459 190.146C233.459 190.508 233.752 190.801 234.113 190.801Z" fill="white"/>
<path d="M235.425 190.801C235.786 190.801 236.079 190.508 236.079 190.146C236.079 189.783 235.786 189.49 235.425 189.49C235.063 189.49 234.771 189.783 234.771 190.146C234.771 190.508 235.063 190.801 235.425 190.801Z" fill="white"/>
<path d="M236.732 190.801C237.093 190.801 237.386 190.508 237.386 190.146C237.386 189.783 237.093 189.49 236.732 189.49C236.371 189.49 236.078 189.783 236.078 190.146C236.078 190.508 236.371 190.801 236.732 190.801Z" fill="white"/>
<path d="M238.04 190.801C238.401 190.801 238.694 190.508 238.694 190.146C238.694 189.783 238.401 189.49 238.04 189.49C237.679 189.49 237.386 189.783 237.386 190.146C237.386 190.508 237.679 190.801 238.04 190.801Z" fill="white"/>
<path d="M230.192 192.113C230.553 192.113 230.846 191.819 230.846 191.457C230.846 191.095 230.553 190.801 230.192 190.801C229.83 190.801 229.538 191.095 229.538 191.457C229.538 191.819 229.83 192.113 230.192 192.113Z" fill="white"/>
<path d="M231.5 192.113C231.861 192.113 232.154 191.819 232.154 191.457C232.154 191.095 231.861 190.801 231.5 190.801C231.139 190.801 230.846 191.095 230.846 191.457C230.846 191.819 231.139 192.113 231.5 192.113Z" fill="white"/>
<path d="M226.268 193.426C226.629 193.426 226.922 193.133 226.922 192.771C226.922 192.409 226.629 192.115 226.268 192.115C225.907 192.115 225.614 192.409 225.614 192.771C225.614 193.133 225.907 193.426 226.268 193.426Z" fill="white"/>
<path d="M227.575 193.426C227.937 193.426 228.229 193.133 228.229 192.771C228.229 192.409 227.937 192.115 227.575 192.115C227.214 192.115 226.921 192.409 226.921 192.771C226.921 193.133 227.214 193.426 227.575 193.426Z" fill="white"/>
<path d="M228.884 193.426C229.245 193.426 229.538 193.133 229.538 192.771C229.538 192.409 229.245 192.115 228.884 192.115C228.522 192.115 228.229 192.409 228.229 192.771C228.229 193.133 228.522 193.426 228.884 193.426Z" fill="white"/>
<path d="M230.192 193.426C230.553 193.426 230.846 193.133 230.846 192.771C230.846 192.409 230.553 192.115 230.192 192.115C229.83 192.115 229.538 192.409 229.538 192.771C229.538 193.133 229.83 193.426 230.192 193.426Z" fill="white"/>
<path d="M231.5 193.426C231.861 193.426 232.154 193.133 232.154 192.771C232.154 192.409 231.861 192.115 231.5 192.115C231.139 192.115 230.846 192.409 230.846 192.771C230.846 193.133 231.139 193.426 231.5 193.426Z" fill="white"/>
<path d="M232.808 193.426C233.169 193.426 233.462 193.133 233.462 192.771C233.462 192.409 233.169 192.115 232.808 192.115C232.447 192.115 232.154 192.409 232.154 192.771C232.154 193.133 232.447 193.426 232.808 193.426Z" fill="white"/>
<path d="M226.268 194.738C226.629 194.738 226.922 194.444 226.922 194.082C226.922 193.72 226.629 193.426 226.268 193.426C225.907 193.426 225.614 193.72 225.614 194.082C225.614 194.444 225.907 194.738 226.268 194.738Z" fill="white"/>
<path d="M230.192 180.308C230.553 180.308 230.846 180.015 230.846 179.653C230.846 179.29 230.553 178.997 230.192 178.997C229.83 178.997 229.538 179.29 229.538 179.653C229.538 180.015 229.83 180.308 230.192 180.308Z" fill="white"/>
<path d="M224.96 181.62C225.321 181.62 225.614 181.326 225.614 180.964C225.614 180.602 225.321 180.308 224.96 180.308C224.599 180.308 224.306 180.602 224.306 180.964C224.306 181.326 224.599 181.62 224.96 181.62Z" fill="white"/>
<path d="M228.884 181.62C229.245 181.62 229.538 181.326 229.538 180.964C229.538 180.602 229.245 180.308 228.884 180.308C228.522 180.308 228.229 180.602 228.229 180.964C228.229 181.326 228.522 181.62 228.884 181.62Z" fill="white"/>
<path d="M231.5 181.62C231.861 181.62 232.154 181.326 232.154 180.964C232.154 180.602 231.861 180.308 231.5 180.308C231.139 180.308 230.846 180.602 230.846 180.964C230.846 181.326 231.139 181.62 231.5 181.62Z" fill="white"/>
<path d="M223.654 182.933C224.015 182.933 224.308 182.64 224.308 182.278C224.308 181.916 224.015 181.622 223.654 181.622C223.293 181.622 223 181.916 223 182.278C223 182.64 223.293 182.933 223.654 182.933Z" fill="white"/>
<path d="M226.268 182.933C226.629 182.933 226.922 182.64 226.922 182.278C226.922 181.916 226.629 181.622 226.268 181.622C225.907 181.622 225.614 181.916 225.614 182.278C225.614 182.64 225.907 182.933 226.268 182.933Z" fill="white"/>
<path d="M235.425 182.933C235.786 182.933 236.079 182.64 236.079 182.278C236.079 181.916 235.786 181.622 235.425 181.622C235.063 181.622 234.771 181.916 234.771 182.278C234.771 182.64 235.063 182.933 235.425 182.933Z" fill="white"/>
<path d="M232.808 184.245C233.169 184.245 233.462 183.951 233.462 183.589C233.462 183.227 233.169 182.933 232.808 182.933C232.447 182.933 232.154 183.227 232.154 183.589C232.154 183.951 232.447 184.245 232.808 184.245Z" fill="white"/>
<path d="M234.113 184.245C234.475 184.245 234.767 183.951 234.767 183.589C234.767 183.227 234.475 182.933 234.113 182.933C233.752 182.933 233.459 183.227 233.459 183.589C233.459 183.951 233.752 184.245 234.113 184.245Z" fill="white"/>
<path d="M235.425 184.245C235.786 184.245 236.079 183.951 236.079 183.589C236.079 183.227 235.786 182.933 235.425 182.933C235.063 182.933 234.771 183.227 234.771 183.589C234.771 183.951 235.063 184.245 235.425 184.245Z" fill="white"/>
<path d="M236.732 184.245C237.093 184.245 237.386 183.951 237.386 183.589C237.386 183.227 237.093 182.933 236.732 182.933C236.371 182.933 236.078 183.227 236.078 183.589C236.078 183.951 236.371 184.245 236.732 184.245Z" fill="white"/>
<path d="M235.425 185.556C235.786 185.556 236.079 185.262 236.079 184.9C236.079 184.538 235.786 184.245 235.425 184.245C235.063 184.245 234.771 184.538 234.771 184.9C234.771 185.262 235.063 185.556 235.425 185.556Z" fill="white"/>
<path d="M230.192 186.867C230.553 186.867 230.846 186.574 230.846 186.212C230.846 185.849 230.553 185.556 230.192 185.556C229.83 185.556 229.538 185.849 229.538 186.212C229.538 186.574 229.83 186.867 230.192 186.867Z" fill="white"/>
<path d="M235.425 186.867C235.786 186.867 236.079 186.574 236.079 186.212C236.079 185.849 235.786 185.556 235.425 185.556C235.063 185.556 234.771 185.849 234.771 186.212C234.771 186.574 235.063 186.867 235.425 186.867Z" fill="white"/>
<path d="M228.884 188.179C229.245 188.179 229.538 187.885 229.538 187.523C229.538 187.161 229.245 186.867 228.884 186.867C228.522 186.867 228.229 187.161 228.229 187.523C228.229 187.885 228.522 188.179 228.884 188.179Z" fill="white"/>
<path d="M228.884 189.49C229.245 189.49 229.538 189.196 229.538 188.834C229.538 188.472 229.245 188.179 228.884 188.179C228.522 188.179 228.229 188.472 228.229 188.834C228.229 189.196 228.522 189.49 228.884 189.49Z" fill="white"/>
<path d="M232.808 189.49C233.169 189.49 233.462 189.196 233.462 188.834C233.462 188.472 233.169 188.179 232.808 188.179C232.447 188.179 232.154 188.472 232.154 188.834C232.154 189.196 232.447 189.49 232.808 189.49Z" fill="white"/>
<path d="M238.04 189.49C238.401 189.49 238.694 189.196 238.694 188.834C238.694 188.472 238.401 188.179 238.04 188.179C237.679 188.179 237.386 188.472 237.386 188.834C237.386 189.196 237.679 189.49 238.04 189.49Z" fill="white"/>
<path d="M228.884 190.801C229.245 190.801 229.538 190.508 229.538 190.146C229.538 189.784 229.245 189.49 228.884 189.49C228.522 189.49 228.229 189.784 228.229 190.146C228.229 190.508 228.522 190.801 228.884 190.801Z" fill="white"/>
<path d="M230.192 190.801C230.553 190.801 230.846 190.508 230.846 190.146C230.846 189.784 230.553 189.49 230.192 189.49C229.83 189.49 229.538 189.784 229.538 190.146C229.538 190.508 229.83 190.801 230.192 190.801Z" fill="white"/>
<path d="M231.5 190.801C231.861 190.801 232.154 190.508 232.154 190.146C232.154 189.784 231.861 189.49 231.5 189.49C231.139 189.49 230.846 189.784 230.846 190.146C230.846 190.508 231.139 190.801 231.5 190.801Z" fill="white"/>
<path d="M239.346 190.801C239.707 190.801 240 190.508 240 190.146C240 189.784 239.707 189.49 239.346 189.49C238.985 189.49 238.692 189.784 238.692 190.146C238.692 190.508 238.985 190.801 239.346 190.801Z" fill="white"/>
<path d="M238.04 192.112C238.401 192.112 238.694 191.819 238.694 191.457C238.694 191.095 238.401 190.801 238.04 190.801C237.679 190.801 237.386 191.095 237.386 191.457C237.386 191.819 237.679 192.112 238.04 192.112Z" fill="white"/>
<path d="M224.96 194.738C225.321 194.738 225.614 194.444 225.614 194.082C225.614 193.72 225.321 193.426 224.96 193.426C224.599 193.426 224.306 193.72 224.306 194.082C224.306 194.444 224.599 194.738 224.96 194.738Z" fill="white"/>
<path d="M227.575 194.738C227.937 194.738 228.229 194.444 228.229 194.082C228.229 193.72 227.937 193.426 227.575 193.426C227.214 193.426 226.921 193.72 226.921 194.082C226.921 194.444 227.214 194.738 227.575 194.738Z" fill="white"/>
<path d="M226.268 196.049C226.629 196.049 226.922 195.755 226.922 195.393C226.922 195.031 226.629 194.738 226.268 194.738C225.907 194.738 225.614 195.031 225.614 195.393C225.614 195.755 225.907 196.049 226.268 196.049Z" fill="white"/>
<circle cx="230.5" cy="187.5" r="11" stroke="white"/>
</g>
</g>
</g>
<defs>
<clipPath id="clip0_32_518">
<rect width="1287" height="354" fill="white"/>
</clipPath>
<clipPath id="clip1_32_518">
<rect width="598.948" height="153.512" fill="white" transform="translate(165 143)"/>
</clipPath>
<clipPath id="clip2_32_518">
<rect width="130.552" height="153.512" fill="white" transform="translate(165 143)"/>
</clipPath>
</defs>
</svg>
